<svg width="27" height="26" viewBox="0 0 27 26" fill="none" xmlns="http://www.w3.org/2000/svg">
<path d="M17.1036 13C17.1036 14.0774 16.6753 15.1108 15.9129 15.8726C15.1505 16.6345 14.1165 17.0625 13.0383 17.0625C11.9601 17.0625 10.9261 16.6345 10.1637 15.8726C9.40127 15.1108 8.97297 14.0774 8.97297 13C8.97297 12.7684 8.99736 12.5423 9.03936 12.3229H7.61786V17.7355C7.61786 18.112 7.92276 18.4167 8.29948 18.4167H17.7784C17.959 18.4163 18.132 18.3444 18.2595 18.2167C18.387 18.089 18.4587 17.9159 18.4587 17.7355V12.3229H17.0372C17.0792 12.5423 17.1036 12.7684 17.1036 13ZM13.0383 15.7083C13.3943 15.7082 13.7468 15.6381 14.0756 15.5019C14.4045 15.3656 14.7033 15.166 14.955 14.9144C15.2066 14.6628 15.4062 14.3641 15.5424 14.0354C15.6785 13.7067 15.7486 13.3544 15.7485 12.9986C15.7484 12.6429 15.6782 12.2906 15.5419 11.962C15.4055 11.6334 15.2058 11.3348 14.954 11.0833C14.7022 10.8318 14.4033 10.6323 14.0744 10.4963C13.7454 10.3602 13.3929 10.2902 13.0369 10.2903C12.3179 10.2905 11.6285 10.5761 11.1202 11.0842C10.612 11.5924 10.3265 12.2815 10.3267 13C10.3269 13.7185 10.6127 14.4075 11.1212 14.9154C11.6297 15.4233 12.3193 15.7085 13.0383 15.7083ZM16.2905 10.1562H17.9153C18.0232 10.1562 18.1268 10.1135 18.2032 10.0373C18.2797 9.9612 18.3228 9.85787 18.3232 9.75V8.12635C18.3232 8.01825 18.2802 7.91457 18.2037 7.83813C18.1272 7.76169 18.0235 7.71875 17.9153 7.71875H16.2905C16.1823 7.71875 16.0786 7.76169 16.0021 7.83813C15.9256 7.91457 15.8826 8.01825 15.8826 8.12635V9.75C15.884 9.97344 16.0669 10.1562 16.2905 10.1562ZM13.0383 0C9.58808 0 6.27919 1.36964 3.83954 3.80761C1.39988 6.24558 0.0292969 9.55219 0.0292969 13C0.0292969 16.4478 1.39988 19.7544 3.83954 22.1924C6.27919 24.6304 9.58808 26 13.0383 26C14.7466 26 16.4383 25.6637 18.0166 25.0104C19.5949 24.3571 21.029 23.3995 22.237 22.1924C23.445 20.9852 24.4032 19.5521 25.057 17.9749C25.7108 16.3977 26.0472 14.7072 26.0472 13C26.0472 11.2928 25.7108 9.60235 25.057 8.02512C24.4032 6.44788 23.445 5.01477 22.237 3.80761C21.029 2.60045 19.5949 1.64288 18.0166 0.989566C16.4383 0.336255 14.7466 0 13.0383 0ZM19.8138 18.2664C19.8138 19.0938 19.1362 19.7708 18.3083 19.7708H7.76828C6.94031 19.7708 6.26276 19.0938 6.26276 18.2664V7.73365C6.26276 6.90625 6.94031 6.22917 7.76828 6.22917H18.3083C19.1362 6.22917 19.8138 6.90625 19.8138 7.73365V18.2664Z" fill="#150603"/>
</svg>
