<svg width="18" height="18" viewBox="0 0 18 18" fill="inherit" xmlns="http://www.w3.org/2000/svg">
<path d="M2.37812 17.5C2.37768 17.5 2.37711 17.5 2.3764 17.4999C2.37227 17.4998 2.36376 17.4994 2.35151 17.4985C2.32684 17.4966 2.28811 17.4926 2.24021 17.4842C2.14218 17.4669 2.01846 17.4332 1.90029 17.3706C1.78463 17.3094 1.67994 17.2238 1.60248 17.1008C1.52613 16.9795 1.45801 16.7932 1.45801 16.5C1.45801 15.8696 1.76873 14.4948 2.91526 13.2808C4.04538 12.0842 6.0304 11 9.45801 11C12.8856 11 14.8706 12.0842 16.0008 13.2808C17.1473 14.4948 17.458 15.8696 17.458 16.5C17.458 16.7932 17.3899 16.9795 17.3135 17.1008C17.2361 17.2238 17.1314 17.3094 17.0157 17.3706C16.8976 17.4332 16.7738 17.4669 16.6758 17.4842C16.6279 17.4926 16.5892 17.4966 16.5645 17.4985C16.5523 17.4994 16.5437 17.4998 16.5396 17.4999C16.5389 17.5 16.5383 17.5 16.5379 17.5H2.37812ZM12.0997 7.33867C11.3939 8.08594 10.443 8.5 9.45801 8.5C8.47297 8.5 7.52207 8.08594 6.81631 7.33867C6.10964 6.59043 5.70801 5.56979 5.70801 4.5C5.70801 3.43021 6.10964 2.40957 6.81631 1.66133C7.52207 0.914061 8.47297 0.5 9.45801 0.5C10.443 0.5 11.3939 0.914061 12.0997 1.66133C12.8064 2.40957 13.208 3.43021 13.208 4.5C13.208 5.56979 12.8064 6.59043 12.0997 7.33867Z" stroke="inherit"/>
</svg>
