<svg width="27" height="27" viewBox="0 0 27 27" fill="none" xmlns="http://www.w3.org/2000/svg">
<path d="M13.568 0.421875C6.33791 0.421875 0.480713 6.27581 0.480713 13.5C0.480713 20.7242 6.33875 26.5781 13.568 26.5781C20.7981 26.5781 26.6553 20.7242 26.6553 13.5C26.6553 6.27581 20.7973 0.421875 13.568 0.421875ZM19.996 9.38166L17.848 19.4965C17.6892 20.2137 17.262 20.3875 16.6659 20.05L13.3941 17.6403L11.816 19.159C11.6421 19.3328 11.4943 19.4805 11.1566 19.4805L11.3888 16.1527L17.452 10.6785C17.7163 10.4465 17.3937 10.3148 17.045 10.5469L9.55147 15.2609L6.32187 14.2535C5.62022 14.0324 5.60418 13.5523 6.46963 13.2148L19.0875 8.35228C19.6734 8.14134 20.1851 8.49487 19.9951 9.38081L19.996 9.38166Z" fill="#150603"/>
</svg>
