<svg width="28" height="27" viewBox="0 0 28 27" fill="inherit" xmlns="http://www.w3.org/2000/svg">
    <g clip-path="url(#clip0_16584_6570)">
        <path
            d="M14.4218 0.421875C7.19167 0.421875 1.33447 6.27581 1.33447 13.5C1.33447 20.7242 7.19251 26.5781 14.4218 26.5781C21.6519 26.5781 27.5091 20.7242 27.5091 13.5C27.5091 6.27581 21.651 0.421875 14.4218 0.421875ZM20.8497 9.38166L18.7017 19.4965C18.543 20.2137 18.1158 20.3875 17.5197 20.05L14.2478 17.6403L12.6698 19.159C12.4958 19.3328 12.3481 19.4805 12.0103 19.4805L12.2425 16.1527L18.3057 10.6785C18.57 10.4465 18.2475 10.3148 17.8988 10.5469L10.4052 15.2609L7.17563 14.2535C6.47398 14.0324 6.45794 13.5523 7.32339 13.2148L19.9412 8.35228C20.5272 8.14134 21.0389 8.49488 20.8489 9.38081L20.8497 9.38166Z"
            fill="inherit" />
    </g>
    <defs>
        <clipPath id="clip0_16584_6570">
            <rect width="27.0189" height="27" fill="inherit" transform="translate(0.912354)" />
        </clipPath>
    </defs>
</svg>