<?xml version="1.0" encoding="utf-8"?><svg viewBox="0 0 27 27" xmlns="http://www.w3.org/2000/svg" xmlns:xlink="http://www.w3.org/1999/xlink"><style>:root>svg{display:none}:root>svg:target{display:block}</style><svg fill="inherit" viewBox="0 0 20 22" id="cart" xmlns="http://www.w3.org/2000/svg"><path d="M1.977 8.84A2 2 0 013.97 7h12.058a2 2 0 011.994 1.84l.803 10A1.998 1.998 0 0116.833 21H3.167a2 2 0 01-1.993-2.16l.803-10v0z" stroke="inherit" stroke-linecap="round" stroke-linejoin="round"/><path d="M14 10V5a4 4 0 10-8 0v5" stroke="inherit" stroke-linecap="round" stroke-linejoin="round"/></svg><svg fill="none" viewBox="0 0 27 27" id="facebook" xmlns="http://www.w3.org/2000/svg"><path d="M13.01 0C5.824 0 0 6.081 0 13.582 0 20.358 4.757 25.977 10.977 27v-9.492H7.672v-3.926h3.305v-2.993c0-3.406 1.942-5.285 4.913-5.285 1.423 0 2.914.265 2.914.265v3.34h-1.645c-1.613 0-2.118 1.049-2.118 2.123v2.547h3.605l-.576 3.927h-3.029v9.491c6.22-1.017 10.977-6.636 10.977-13.415C26.018 6.08 20.193 0 13.01 0z" fill="#150603"/></svg><svg fill="inherit" viewBox="0 0 19 16" id="heart" xmlns="http://www.w3.org/2000/svg"><path d="M9.075 2.663l.425.688.425-.688A4.545 4.545 0 0113.818.5c2.56 0 4.682 2.162 4.682 4.833 0 1.188-.531 2.42-1.392 3.627-.857 1.203-2.01 2.339-3.18 3.324A33.985 33.985 0 019.5 15.421a30.843 30.843 0 01-1.21-.761c-.88-.58-2.05-1.406-3.218-2.392-1.17-.988-2.324-2.126-3.182-3.327C1.031 7.734.5 6.509.5 5.333.5 2.663 2.621.5 5.182.5c1.637 0 3.075.84 3.893 2.163z" stroke="inherit"/></svg><svg fill="none" viewBox="0 0 27 26" id="instagram" xmlns="http://www.w3.org/2000/svg"><path d="M17.104 13a4.061 4.061 0 01-4.066 4.063A4.067 4.067 0 018.973 13c0-.232.024-.458.066-.677H7.618v5.412c0 .377.305.682.681.682h9.48a.682.682 0 00.68-.682v-5.412h-1.422c.042.22.067.445.067.677zm-4.066 2.708a2.713 2.713 0 002.71-2.71 2.708 2.708 0 00-2.711-2.708 2.712 2.712 0 00-2.71 2.71 2.708 2.708 0 002.711 2.708zm3.253-5.552h1.624a.408.408 0 00.408-.406V8.126a.407.407 0 00-.408-.407h-1.624a.408.408 0 00-.408.407V9.75a.41.41 0 00.408.406zM13.038 0C9.588 0 6.28 1.37 3.84 3.808a12.995 12.995 0 000 18.384 13.013 13.013 0 0021.217-4.217 12.991 12.991 0 00-2.82-14.167A13.01 13.01 0 0013.038 0zm6.776 18.266a1.51 1.51 0 01-1.506 1.505H7.768a1.51 1.51 0 01-1.505-1.505V7.734a1.51 1.51 0 011.505-1.505h10.54a1.51 1.51 0 011.506 1.505v10.532z" fill="#150603"/></svg><svg fill="inherit" viewBox="0 0 18 18" id="profile" xmlns="http://www.w3.org/2000/svg"><path d="M2.378 17.5h-.002l-.024-.002a1.174 1.174 0 01-.452-.127.766.766 0 01-.298-.27c-.076-.121-.144-.308-.144-.601 0-.63.31-2.005 1.457-3.22C4.045 12.085 6.03 11 9.458 11s5.413 1.084 6.543 2.28c1.146 1.215 1.457 2.59 1.457 3.22 0 .293-.068.48-.144.6a.766.766 0 01-.298.27 1.171 1.171 0 01-.476.13H2.378zM12.1 7.339A3.634 3.634 0 019.458 8.5a3.634 3.634 0 01-2.642-1.161A4.138 4.138 0 015.708 4.5c0-1.07.402-2.09 1.108-2.839A3.634 3.634 0 019.458.5c.985 0 1.936.414 2.642 1.161A4.138 4.138 0 0113.208 4.5c0 1.07-.402 2.09-1.108 2.839z" stroke="inherit"/></svg><svg fill="none" viewBox="0 0 19 19" id="search" xmlns="http://www.w3.org/2000/svg"><path d="M17.95 17.95l-3.357-3.552a7.876 7.876 0 10-3.232 2.02" stroke="#150603" stroke-linecap="round" stroke-linejoin="round"/></svg><svg fill="none" viewBox="0 0 27 27" id="telegram" xmlns="http://www.w3.org/2000/svg"><path d="M13.568.422C6.338.422.481 6.276.481 13.5c0 7.224 5.858 13.078 13.087 13.078 7.23 0 13.087-5.854 13.087-13.078 0-7.224-5.858-13.078-13.087-13.078zm6.428 8.96l-2.148 10.115c-.159.717-.586.89-1.182.553l-3.272-2.41-1.578 1.519c-.174.174-.322.322-.66.322l.233-3.328 6.063-5.474c.264-.232-.058-.364-.407-.132L9.551 15.26l-3.23-1.007c-.7-.222-.717-.702.149-1.04l12.617-4.862c.586-.21 1.098.143.908 1.029h.001z" fill="#150603"/></svg></svg>