<?xml version="1.0" encoding="utf-8"?><svg viewBox="0 0 20 22" xmlns="http://www.w3.org/2000/svg" xmlns:xlink="http://www.w3.org/1999/xlink"><style>:root>svg{display:none}:root>svg:target{display:block}</style><svg fill="inherit" viewBox="0 0 20 22" id="cart" xmlns="http://www.w3.org/2000/svg"><path d="M1.977 8.84A2 2 0 013.97 7h12.058a2 2 0 011.994 1.84l.803 10A1.998 1.998 0 0116.833 21H3.167a2 2 0 01-1.993-2.16l.803-10v0z" stroke="inherit" stroke-linecap="round" stroke-linejoin="round"/><path d="M14 10V5a4 4 0 10-8 0v5" stroke="inherit" stroke-linecap="round" stroke-linejoin="round"/></svg><svg fill="inherit" viewBox="0 0 19 16" id="heart" xmlns="http://www.w3.org/2000/svg"><path d="M9.075 2.663l.425.688.425-.688A4.545 4.545 0 0113.818.5c2.56 0 4.682 2.162 4.682 4.833 0 1.188-.531 2.42-1.392 3.627-.857 1.203-2.01 2.339-3.18 3.324A33.985 33.985 0 019.5 15.421a30.843 30.843 0 01-1.21-.761c-.88-.58-2.05-1.406-3.218-2.392-1.17-.988-2.324-2.126-3.182-3.327C1.031 7.734.5 6.509.5 5.333.5 2.663 2.621.5 5.182.5c1.637 0 3.075.84 3.893 2.163z" stroke="inherit"/></svg><svg fill="inherit" viewBox="0 0 18 18" id="profile" xmlns="http://www.w3.org/2000/svg"><path d="M2.378 17.5h-.002l-.024-.002a1.174 1.174 0 01-.452-.127.766.766 0 01-.298-.27c-.076-.121-.144-.308-.144-.601 0-.63.31-2.005 1.457-3.22C4.045 12.085 6.03 11 9.458 11s5.413 1.084 6.543 2.28c1.146 1.215 1.457 2.59 1.457 3.22 0 .293-.068.48-.144.6a.766.766 0 01-.298.27 1.171 1.171 0 01-.476.13H2.378zM12.1 7.339A3.634 3.634 0 019.458 8.5a3.634 3.634 0 01-2.642-1.161A4.138 4.138 0 015.708 4.5c0-1.07.402-2.09 1.108-2.839A3.634 3.634 0 019.458.5c.985 0 1.936.414 2.642 1.161A4.138 4.138 0 0113.208 4.5c0 1.07-.402 2.09-1.108 2.839z" stroke="inherit"/></svg><svg fill="none" viewBox="0 0 19 19" id="search" xmlns="http://www.w3.org/2000/svg"><path d="M17.95 17.95l-3.357-3.552a7.876 7.876 0 10-3.232 2.02" stroke="#150603" stroke-linecap="round" stroke-linejoin="round"/></svg></svg>