<?xml version="1.0" encoding="utf-8"?><svg viewBox="0 0 28 27" xmlns="http://www.w3.org/2000/svg" xmlns:xlink="http://www.w3.org/1999/xlink"><style>:root>svg{display:none}:root>svg:target{display:block}</style><svg fill="none" viewBox="0 0 23 8" id="arrow-left" xmlns="http://www.w3.org/2000/svg"><path d="M.646 3.646a.5.5 0 000 .708l3.182 3.182a.5.5 0 00.708-.708L1.707 4l2.829-2.828a.5.5 0 10-.708-.708L.646 3.646zM23 3.5H1v1h22v-1z" fill="#150603"/></svg><svg fill="none" viewBox="0 0 22 8" id="arrow-right" xmlns="http://www.w3.org/2000/svg"><path d="M21.354 4.354a.5.5 0 000-.708L18.172.464a.5.5 0 10-.707.708L20.293 4l-2.828 2.828a.5.5 0 10.707.708l3.182-3.182zM0 4.5h21v-1H0v1z" fill="#150603"/></svg><svg fill="inherit" viewBox="0 0 20 22" id="cart" xmlns="http://www.w3.org/2000/svg"><path d="M1.977 8.84A2 2 0 013.97 7h12.058a2 2 0 011.994 1.84l.803 10A1.998 1.998 0 0116.833 21H3.167a2 2 0 01-1.993-2.16l.803-10v0z" stroke="inherit" stroke-linecap="round" stroke-linejoin="round"/><path d="M14 10V5a4 4 0 10-8 0v5" stroke="inherit" stroke-linecap="round" stroke-linejoin="round"/></svg><svg fill="inherit" viewBox="0 0 27 27" id="facebook" xmlns="http://www.w3.org/2000/svg"><path d="M13.863 0C6.68 0 .854 6.081.854 13.582c0 6.777 4.757 12.395 10.977 13.418v-9.492H8.526v-3.926h3.305v-2.993c0-3.406 1.942-5.285 4.913-5.285 1.423 0 2.914.265 2.914.265v3.34h-1.645c-1.613 0-2.118 1.049-2.118 2.123v2.547H19.5l-.576 3.927h-3.029v9.491c6.22-1.017 10.977-6.636 10.977-13.415C26.872 6.08 21.047 0 13.863 0z"/></svg><svg fill="inherit" viewBox="0 0 19 16" id="heart" xmlns="http://www.w3.org/2000/svg"><path d="M9.075 2.663l.425.688.425-.688A4.545 4.545 0 0113.818.5c2.56 0 4.682 2.162 4.682 4.833 0 1.188-.531 2.42-1.392 3.627-.857 1.203-2.01 2.339-3.18 3.324A33.985 33.985 0 019.5 15.421a30.843 30.843 0 01-1.21-.761c-.88-.58-2.05-1.406-3.218-2.392-1.17-.988-2.324-2.126-3.182-3.327C1.031 7.734.5 6.509.5 5.333.5 2.663 2.621.5 5.182.5c1.637 0 3.075.84 3.893 2.163z" stroke="inherit"/></svg><svg fill="inherit" viewBox="0 0 27 26" id="instagram" xmlns="http://www.w3.org/2000/svg"><path d="M17.958 13a4.061 4.061 0 01-4.066 4.063A4.067 4.067 0 019.827 13c0-.232.024-.458.066-.677H8.472v5.412c0 .377.305.682.681.682h9.48a.682.682 0 00.68-.682v-5.412H17.89c.042.22.067.445.067.677zm-4.066 2.708a2.713 2.713 0 002.71-2.71 2.708 2.708 0 00-2.711-2.708A2.712 2.712 0 0011.18 13a2.708 2.708 0 002.711 2.708zm3.253-5.552h1.624a.407.407 0 00.408-.406V8.126a.407.407 0 00-.408-.407h-1.624a.408.408 0 00-.408.407V9.75a.41.41 0 00.408.406zM13.892 0c-3.45 0-6.759 1.37-9.198 3.808a12.995 12.995 0 000 18.384 13.013 13.013 0 0021.217-4.217 12.991 12.991 0 00-2.82-14.167A13.01 13.01 0 0013.892 0zm6.776 18.266a1.51 1.51 0 01-1.506 1.505H8.622a1.51 1.51 0 01-1.505-1.505V7.734a1.51 1.51 0 011.505-1.505h10.54a1.51 1.51 0 011.506 1.505v10.532z"/></svg><svg fill="inherit" viewBox="0 0 18 18" id="profile" xmlns="http://www.w3.org/2000/svg"><path d="M2.378 17.5h-.002l-.024-.002a1.174 1.174 0 01-.452-.127.766.766 0 01-.298-.27c-.076-.121-.144-.308-.144-.601 0-.63.31-2.005 1.457-3.22C4.045 12.085 6.03 11 9.458 11s5.413 1.084 6.543 2.28c1.146 1.215 1.457 2.59 1.457 3.22 0 .293-.068.48-.144.6a.766.766 0 01-.298.27 1.171 1.171 0 01-.476.13H2.378zM12.1 7.339A3.634 3.634 0 019.458 8.5a3.634 3.634 0 01-2.642-1.161A4.138 4.138 0 015.708 4.5c0-1.07.402-2.09 1.108-2.839A3.634 3.634 0 019.458.5c.985 0 1.936.414 2.642 1.161A4.138 4.138 0 0113.208 4.5c0 1.07-.402 2.09-1.108 2.839z" stroke="inherit"/></svg><svg fill="none" viewBox="0 0 19 19" id="search" xmlns="http://www.w3.org/2000/svg"><path d="M17.95 17.95l-3.357-3.552a7.876 7.876 0 10-3.232 2.02" stroke="#150603" stroke-linecap="round" stroke-linejoin="round"/></svg><svg fill="inherit" viewBox="0 0 28 27" id="telegram" xmlns="http://www.w3.org/2000/svg"><g clip-path="url(#iclip0_16584_6570)"><path d="M14.422.422C7.192.422 1.334 6.276 1.334 13.5c0 7.224 5.859 13.078 13.088 13.078 7.23 0 13.087-5.854 13.087-13.078C27.51 6.276 21.651.422 14.422.422zm6.428 8.96l-2.148 10.115c-.159.717-.586.89-1.182.553l-3.272-2.41-1.578 1.519c-.174.174-.322.322-.66.322l.232-3.328 6.064-5.474c.264-.232-.059-.364-.407-.132l-7.494 4.714-3.23-1.007c-.701-.222-.717-.702.148-1.04l12.618-4.862c.586-.21 1.098.143.908 1.029z"/></g><defs><clipPath id="iclip0_16584_6570"><path transform="translate(.912)" d="M0 0h27.019v27H0z"/></clipPath></defs></svg></svg>