<svg width="27" height="27" viewBox="0 0 27 27" fill="inherit" xmlns="http://www.w3.org/2000/svg">
    <path
        d="M13.8631 0C6.67876 0 0.854004 6.08105 0.854004 13.5815C0.854004 20.3593 5.6106 25.9772 11.8309 27V17.5083H8.52623V13.5815H11.8309V10.5892C11.8309 7.18262 13.7733 5.30411 16.7436 5.30411C18.1669 5.30411 19.6579 5.56897 19.6579 5.56897V8.909H18.0134C16.4001 8.909 15.8953 9.95759 15.8953 11.032V13.5788H19.5005L18.9241 17.5056H15.8953V26.9973C22.1156 25.9799 26.8722 20.3607 26.8722 13.5815C26.8722 6.08105 21.0474 0 13.8631 0V0Z"
        fill="inherit" />
</svg>