<svg width="19" height="16" viewBox="0 0 19 16" fill="inherit" xmlns="http://www.w3.org/2000/svg">
<path d="M9.07472 2.66294L9.5 3.35078L9.92528 2.66294C10.7428 1.34065 12.1813 0.5 13.8182 0.5C16.3786 0.5 18.5 2.66246 18.5 5.33333C18.5 6.5205 17.9689 7.75215 17.1084 8.95986C16.2513 10.1629 15.098 11.2989 13.9279 12.2842C12.7602 13.2676 11.59 14.089 10.7104 14.6651C10.2711 14.9528 9.90551 15.1786 9.65048 15.332C9.59533 15.3651 9.54537 15.3949 9.50097 15.4212C9.45642 15.3946 9.40627 15.3645 9.35088 15.331C9.09579 15.1764 8.73009 14.9491 8.29072 14.6596C7.411 14.0799 6.24059 13.2543 5.07259 12.268C3.90225 11.2797 2.74871 10.1421 1.89136 8.94079C1.03038 7.73442 0.5 6.50858 0.5 5.33333C0.5 2.66246 2.62145 0.5 5.18182 0.5C6.81871 0.5 8.25717 1.34065 9.07472 2.66294Z" stroke="inherit"/>
</svg>
