<svg width="27" height="26" viewBox="0 0 27 26" fill="inherit" xmlns="http://www.w3.org/2000/svg">
    <path
        d="M17.9576 13C17.9576 14.0774 17.5293 15.1108 16.7669 15.8726C16.0045 16.6345 14.9705 17.0625 13.8923 17.0625C12.8141 17.0625 11.7801 16.6345 11.0177 15.8726C10.2553 15.1108 9.82697 14.0774 9.82697 13C9.82697 12.7684 9.85136 12.5423 9.89337 12.3229H8.47187V17.7355C8.47187 18.112 8.77677 18.4167 9.15348 18.4167H18.6324C18.813 18.4163 18.986 18.3444 19.1135 18.2167C19.2411 18.089 19.3127 17.9159 19.3127 17.7355V12.3229H17.8912C17.9332 12.5423 17.9576 12.7684 17.9576 13V13ZM13.8923 15.7083C14.2483 15.7082 14.6008 15.6381 14.9296 15.5019C15.2585 15.3656 15.5573 15.166 15.809 14.9144C16.0606 14.6628 16.2602 14.3641 16.3964 14.0354C16.5325 13.7067 16.6026 13.3544 16.6025 12.9986C16.6024 12.6429 16.5322 12.2906 16.3959 11.962C16.2595 11.6334 16.0598 11.3348 15.808 11.0833C15.5562 10.8318 15.2573 10.6323 14.9284 10.4963C14.5994 10.3602 14.2469 10.2902 13.8909 10.2903C13.1719 10.2905 12.4825 10.5761 11.9742 11.0842C11.466 11.5924 11.1805 12.2815 11.1807 13C11.1809 13.7185 11.4667 14.4075 11.9752 14.9154C12.4837 15.4233 13.1733 15.7085 13.8923 15.7083V15.7083ZM17.1445 10.1562H18.7693C18.8772 10.1563 18.9808 10.1135 19.0572 10.0373C19.1337 9.9612 19.1768 9.85787 19.1772 9.75V8.12635C19.1772 8.01825 19.1342 7.91457 19.0577 7.83813C18.9812 7.76169 18.8775 7.71875 18.7693 7.71875H17.1445C17.0363 7.71875 16.9326 7.76169 16.8561 7.83813C16.7796 7.91457 16.7366 8.01825 16.7366 8.12635V9.75C16.738 9.97344 16.9209 10.1562 17.1445 10.1562V10.1562ZM13.8923 0C10.4421 0 7.1332 1.36964 4.69354 3.80761C2.25388 6.24558 0.883301 9.55219 0.883301 13C0.883301 16.4478 2.25388 19.7544 4.69354 22.1924C7.1332 24.6304 10.4421 26 13.8923 26C15.6006 26 17.2923 25.6637 18.8706 25.0104C20.4489 24.3571 21.883 23.3995 23.091 22.1924C24.299 20.9852 25.2572 19.5521 25.911 17.9749C26.5648 16.3977 26.9012 14.7072 26.9012 13C26.9012 11.2928 26.5648 9.60235 25.911 8.02512C25.2572 6.44788 24.299 5.01477 23.091 3.80761C21.883 2.60045 20.4489 1.64288 18.8706 0.989566C17.2923 0.336255 15.6006 0 13.8923 0V0ZM20.6678 18.2664C20.6678 19.0937 19.9902 19.7708 19.1623 19.7708H8.62228C7.79432 19.7708 7.11677 19.0937 7.11677 18.2664V7.73365C7.11677 6.90625 7.79432 6.22917 8.62228 6.22917H19.1623C19.9902 6.22917 20.6678 6.90625 20.6678 7.73365V18.2664V18.2664Z"
        fill="inherit" />
</svg>